<?xml version="1.0" standalone="no"?>
<!DOCTYPE svg PUBLIC "-//W3C//DTD SVG 20010904//EN"
 "http://www.w3.org/TR/2001/REC-SVG-20010904/DTD/svg10.dtd">
<svg version="1.0" xmlns="http://www.w3.org/2000/svg"
 width="500.000000pt" height="500.000000pt" viewBox="0 0 500.000000 500.000000"
 preserveAspectRatio="xMidYMid meet">
<metadata>
Created by potrace 1.11, written by Peter Selinger 2001-2013
</metadata>
<g transform="translate(0.000000,500.000000) scale(0.100000,-0.100000)"
fill="#000000" stroke="none">
<path d="M2693 4155 c7 -64 -15 -145 -55 -206 -49 -73 -113 -146 -269 -306
l-129 -132 -20 42 c-10 23 -30 72 -44 109 -25 68 -53 118 -66 118 -3 0 -14
-26 -23 -57 -23 -83 -98 -207 -172 -288 -125 -135 -148 -234 -91 -403 15 -46
25 -86 22 -89 -3 -4 -31 11 -61 31 -31 20 -67 41 -81 46 l-24 10 28 -56 29
-56 -47 -47 c-147 -147 -82 -393 118 -445 26 -7 56 -12 66 -10 14 2 16 0 7 -9
-7 -7 -49 -13 -104 -13 -144 -3 -254 -47 -310 -124 -27 -39 -36 -87 -23 -132
8 -26 67 -88 85 -88 5 0 9 -23 10 -50 1 -58 24 -109 49 -111 71 -6 164 17 214
53 21 15 32 17 47 8 11 -5 29 -10 41 -10 12 0 18 -5 15 -10 -3 -5 -15 -10 -25
-10 -33 0 -104 -38 -146 -77 -102 -96 -131 -212 -87 -352 13 -42 32 -70 79
-118 59 -60 61 -65 43 -76 -27 -16 -59 -69 -60 -98 -2 -60 26 -110 77 -134 82
-39 320 6 373 69 16 19 31 21 31 3 0 -7 14 -27 31 -45 38 -38 96 -49 171 -32
78 18 120 43 170 98 l44 50 2 -31 c8 -103 126 -159 208 -99 31 22 54 81 54
137 l0 45 105 0 105 0 1 -27 c2 -95 21 -135 80 -167 47 -26 102 -15 145 28 42
42 48 89 41 323 -6 201 -18 256 -74 341 -42 62 -134 141 -175 149 -55 11 -42
25 18 19 117 -12 140 -13 172 -4 17 5 32 13 32 19 0 5 13 0 29 -12 24 -17 38
-20 85 -16 36 3 64 11 78 23 19 18 20 26 14 134 -16 273 -21 301 -56 320 -9 5
-41 9 -70 8 -42 0 -58 -5 -77 -24 -19 -19 -28 -22 -38 -14 -7 6 -29 13 -49 15
-21 3 -50 12 -66 20 -16 8 -37 15 -47 15 -10 0 4 11 30 24 106 52 161 138 161
251 0 103 -43 178 -134 237 l-45 28 -1 118 c-2 119 -4 132 -30 237 -19 75 -27
83 -49 48 -10 -15 -34 -44 -52 -63 l-34 -35 7 30 c11 54 13 309 3 375 -29 191
-133 392 -263 510 l-27 25 4 -40z m-651 -1379 c8 5 9 -14 6 -61 -4 -41 -11
-71 -19 -76 -27 -17 -27 -18 -20 84 1 12 5 16 14 11 7 -5 6 0 -3 11 -14 17
-13 18 5 11 16 -6 18 -5 8 5 -7 7 -13 18 -12 24 0 5 3 4 6 -3 2 -6 9 -9 15 -6z
m758 -318 c-34 -68 -53 -86 -98 -93 -35 -5 -41 -3 -47 15 -10 31 -49 53 -82
46 -15 -3 -46 -9 -68 -12 -22 -3 -43 -8 -47 -11 -5 -2 -8 1 -8 6 0 6 4 11 8
11 4 0 20 10 36 23 25 20 39 22 136 22 75 1 113 5 124 14 9 7 16 11 16 7 0 -3
10 4 22 16 30 30 34 8 8 -44z m-726 -13 c3 -8 18 -20 33 -26 21 -8 24 -12 14
-19 -8 -4 -19 -6 -26 -4 -15 6 -49 64 -37 64 6 0 12 -7 16 -15z m336 -43 c0
-2 -8 -13 -17 -26 -16 -21 -19 -22 -48 -7 -16 8 -59 21 -95 27 l-65 12 112 -1
c62 -1 113 -3 113 -5z m206 -102 c21 -65 39 -90 31 -43 -7 37 -5 39 48 47 179
25 208 26 227 9 10 -9 18 -12 18 -7 0 6 19 19 43 30 50 25 119 24 169 -2 18
-10 44 -19 58 -19 45 -3 47 -5 47 -27 1 -13 1 -45 2 -72 l1 -48 46 6 c26 3 49
8 53 11 3 4 6 39 6 78 l0 71 39 0 c44 1 40 9 50 -109 3 -38 8 -101 11 -140 4
-38 8 -76 10 -83 5 -14 -5 -19 -51 -25 -29 -4 -33 -2 -38 25 -3 17 -6 43 -6
59 0 31 -14 36 -78 23 -30 -6 -31 -8 -26 -50 3 -34 0 -45 -13 -52 -27 -14 -68
-8 -71 10 -2 13 -10 15 -30 9 -160 -44 -286 43 -277 191 3 41 2 45 -18 43 -12
-1 -28 -3 -35 -4 -7 0 -11 -4 -9 -8 3 -5 8 -61 11 -126 7 -127 8 -125 -49
-130 -29 -2 -30 -1 -32 46 -1 27 -4 70 -7 95 -2 26 -5 62 -5 80 -1 32 -2 32
-46 30 -25 0 -45 -4 -44 -7 0 -3 11 -46 24 -96 21 -82 22 -91 7 -102 -9 -7
-28 -13 -43 -13 -23 0 -28 5 -34 33 -15 75 -11 73 -122 57 -1 0 -4 -15 -8 -32
-13 -66 -15 -69 -43 -65 -15 3 -32 1 -37 -4 -9 -6 -90 8 -185 32 -9 3 -14 -4
-15 -21 0 -21 -6 -26 -37 -31 -43 -7 -48 -4 -48 24 0 16 -5 18 -27 13 -77 -17
-142 -18 -191 -2 -28 10 -52 22 -55 29 -2 6 -17 0 -38 -16 -45 -34 -115 -64
-159 -69 -34 -3 -35 -2 -37 37 l-3 40 57 17 c61 19 91 34 82 42 -2 3 -27 6
-54 6 -87 3 -154 20 -170 43 -25 36 -19 85 15 117 55 51 117 74 200 75 74 0
75 0 72 -25 l-3 -24 30 28 c54 52 144 66 209 33 20 -10 43 -12 73 -8 59 9 152
5 194 -9 85 -28 113 -125 54 -187 -16 -18 -35 -33 -42 -33 -7 0 -7 -3 -1 -9
13 -13 74 -24 74 -14 0 4 5 35 11 68 5 33 12 76 15 95 12 91 14 94 95 111 41
9 77 13 80 10 3 -3 14 -31 25 -61z m-66 -291 c0 -53 43 -82 101 -70 27 6 39 4
57 -13 19 -17 36 -21 84 -20 58 0 59 0 31 -14 -49 -26 -110 -80 -142 -128
l-31 -47 0 52 c0 60 -29 120 -70 144 -33 20 -106 14 -139 -11 -51 -37 -55 -59
-56 -302 -1 -124 -5 -235 -9 -247 -7 -22 -17 -27 -77 -36 l-26 -4 1 131 c2
163 -8 247 -34 300 -24 49 -90 126 -107 126 -7 0 -13 4 -13 9 0 5 -22 17 -50
27 -50 18 -66 32 -32 29 9 -1 32 -9 51 -17 42 -19 118 -12 146 12 18 16 25 17
70 4 54 -15 170 -10 192 8 7 6 18 28 23 49 11 41 30 53 30 18z m380 -44 c7 -8
31 -18 54 -22 l41 -7 -50 -7 c-27 -3 -66 -10 -85 -14 l-35 -7 23 21 c12 12 22
28 22 36 0 19 14 19 30 0z m-887 -79 c84 -30 172 -122 192 -201 15 -56 13
-336 -2 -388 -43 -147 -184 -228 -376 -215 -76 5 -100 21 -114 76 -21 82 28
129 137 133 84 3 126 17 53 18 -106 2 -199 65 -250 169 -34 69 -36 173 -5 242
27 60 93 127 156 156 59 27 148 31 209 10z m513 8 c12 -3 31 -23 43 -45 22
-38 22 -46 19 -287 -5 -291 -11 -316 -93 -399 -61 -61 -136 -88 -217 -81 -47
5 -87 33 -89 62 0 6 -2 20 -4 31 -11 55 40 115 100 115 36 0 82 26 90 51 4 12
7 121 7 242 1 122 5 234 10 249 19 54 73 79 134 62z m548 -21 c103 -52 183
-161 205 -279 5 -27 9 -140 8 -251 -2 -198 -2 -202 -26 -227 -13 -14 -40 -29
-58 -32 -75 -14 -123 42 -123 142 l0 61 -135 0 -136 0 2 -61 c2 -72 -12 -106
-51 -129 -60 -36 -127 -9 -147 58 -10 33 -9 359 1 437 17 128 126 262 244 298
55 18 164 9 216 -17z"/>
<path d="M1920 2259 c-33 -13 -59 -48 -60 -78 0 -30 36 -88 59 -96 23 -7 80
-8 106 -2 79 19 76 17 70 56 -3 20 -6 57 -7 83 -1 42 -3 46 -19 37 -10 -5 -21
-14 -24 -20 -5 -7 -13 -5 -24 5 -23 21 -70 28 -101 15z m70 -69 c15 -11 30
-17 34 -13 3 3 6 -1 6 -9 0 -19 -20 -28 -61 -28 -37 0 -57 37 -31 58 20 15 19
16 52 -8z"/>
<path d="M2514 2259 c-4 -6 -10 -27 -14 -46 -8 -34 -8 -34 23 -31 36 3 41 18
20 61 -15 30 -19 32 -29 16z"/>
<path d="M3001 2244 c-43 -35 -43 -89 -2 -133 16 -17 37 -31 48 -32 38 -2 87
3 111 12 24 9 24 11 17 82 -6 71 -14 94 -22 70 -3 -8 -14 -6 -36 8 -43 26 -80
24 -116 -7z m91 -51 c10 -9 18 -25 18 -35 0 -16 -6 -19 -31 -16 -43 4 -61 34
-35 54 25 18 25 18 48 -3z"/>
<path d="M1710 2242 c-46 -6 -87 -23 -105 -42 -18 -20 -17 -20 26 -20 24 -1
67 -3 94 -4 l50 -4 3 37 c2 40 -2 42 -68 33z"/>
<path d="M2179 2243 c-3 -19 1 -97 5 -101 8 -7 74 18 100 39 27 21 26 43 -2
54 -28 11 -102 17 -103 8z"/>
<path d="M1889 1824 c-26 -8 -52 -21 -59 -29 -10 -12 -6 -11 21 2 47 24 117
27 169 9 53 -18 66 -13 17 7 -53 23 -97 26 -148 11z"/>
<path d="M1888 1659 c-36 -36 -37 -79 -3 -114 14 -14 32 -26 40 -26 8 -1 21
-2 28 -3 25 -4 65 24 75 54 15 42 7 71 -25 97 -37 30 -80 27 -115 -8z m100
-15 c34 -24 22 -87 -18 -95 -58 -12 -97 39 -66 86 19 29 51 32 84 9z"/>
<path d="M1860 1470 c48 -38 124 -38 183 -1 38 25 33 27 -18 5 -49 -20 -101
-20 -150 0 l-40 16 25 -20z"/>
<path d="M2020 1260 c-19 -10 -55 -22 -80 -25 -82 -12 -92 -14 -98 -19 -9 -9
100 1 145 13 22 6 52 20 65 31 29 25 13 25 -32 0z"/>
<path d="M2372 1241 c-29 -9 -50 -20 -47 -23 9 -9 78 11 95 28 8 8 12 14 10
13 -3 -1 -29 -9 -58 -18z"/>
<path d="M2909 1824 c-26 -8 -52 -21 -59 -29 -9 -11 1 -9 36 6 39 18 59 20
111 16 34 -4 75 -14 90 -24 26 -16 27 -16 14 0 -27 35 -125 50 -192 31z"/>
<path d="M2924 1674 c-37 -18 -71 -74 -80 -132 l-7 -42 138 0 137 0 -5 44 c-8
61 -31 103 -70 122 -44 23 -77 26 -113 8z m108 -37 c15 -12 32 -35 37 -50 22
-56 20 -57 -94 -57 -78 0 -105 3 -105 13 0 19 40 90 59 104 25 19 73 15 103
-10z"/>
<path d="M2790 1452 c0 -23 57 -31 199 -29 132 2 152 4 168 21 17 18 17 18 -7
11 -58 -18 -91 -21 -196 -20 -61 2 -120 7 -132 14 -25 13 -32 14 -32 3z"/>
</g>
</svg>
